<?xml version="1.0" encoding="utf-8"?>
<!-- Generator: Adobe Illustrator 24.0.2, SVG Export Plug-In . SVG Version: 6.00 Build 0)  -->
<svg version="1.1" id="Layer_1" xmlns="http://www.w3.org/2000/svg" xmlns:xlink="http://www.w3.org/1999/xlink" x="0px" y="0px"
	 viewBox="0 0 218 84" style="enable-background:new 0 0 218 84;" xml:space="preserve">
<style type="text/css">
	.st0{fill:#00873A;}
	.st1{fill:#A11916;}
	.st2{fill:#E02713;}
</style>
<g>
	<path class="st0" d="M92.66,56.56c1.58,0,3.06,0.05,4.54-0.03c0.41-0.02,0.93-0.29,1.17-0.64c2.77-3.99,5.49-8.02,8.25-12.01
		c0.36-0.52,0.35-0.83-0.01-1.34c-2.77-3.94-5.5-7.92-8.28-11.86c-0.23-0.32-0.72-0.57-1.1-0.58c-1.51-0.07-3.02-0.03-4.58-0.03
		c0-2.23,0-4.37,0-6.56c0.36-0.02,0.64-0.05,0.92-0.05c4.29,0,8.58,0.01,12.87-0.02c0.59,0,0.93,0.2,1.24,0.73
		c1.74,2.94,3.51,5.85,5.27,8.77c0.33,0.54,0.68,1.08,1.11,1.77c0.31-0.45,0.53-0.73,0.71-1.03c1.91-3.15,3.82-6.3,5.7-9.47
		c0.33-0.56,0.69-0.78,1.32-0.77c3.81,0.04,7.61,0.02,11.42,0.02c0.29,0,0.57,0,0.93,0c0,2.21,0,4.35,0,6.62
		c-1.54,0-3.05,0.03-4.55-0.01c-0.61-0.02-0.99,0.2-1.36,0.74c-2.48,3.57-4.98,7.12-7.5,10.65c-0.39,0.55-0.46,0.93-0.04,1.53
		c3,4.28,5.94,8.61,8.95,12.88c0.26,0.36,0.82,0.64,1.26,0.66c1.64,0.08,3.28,0.03,5.02,0.03c0,2.19,0,4.33,0,6.61
		c-0.34,0-0.68,0-1.02,0c-4.29,0-8.58-0.03-12.87,0.03c-0.88,0.01-1.32-0.35-1.76-1.09c-2.07-3.53-4.19-7.03-6.29-10.55
		c-0.15-0.26-0.34-0.49-0.6-0.87c-0.28,0.36-0.52,0.62-0.71,0.92c-2.27,3.6-4.52,7.22-6.81,10.81c-0.22,0.34-0.68,0.71-1.03,0.72
		c-4.03,0.05-8.06,0.03-12.18,0.03C92.66,61,92.66,58.86,92.66,56.56z"/>
	<path class="st1" d="M119.91,8.23c1.51,0,3.03,0.09,4.54-0.02c1.65-0.13,3.29-0.6,4.94-0.63c0.86-0.02,1.74,0.6,2.6,0.92
		c0,0.13-0.01,0.26-0.01,0.39c-0.84,0.08-1.68,0.12-2.51,0.26c-1.02,0.18-2.04,0.38-3.03,0.69c-1.75,0.54-3.49,1.16-5.23,1.75
		c-0.3,0.1-0.64,0.18-0.88,0.39c-1.56,1.34-3.41,1.42-5.27,1.55c-0.64,0.05-1.02-0.29-1.14-0.86c-0.13-0.62-0.57-1.4,0.26-1.85
		c1.14-0.62,2.32-1.18,3.48-1.76c0.62-0.31,1.24-0.61,2.1-1.04c-0.8-0.14-1.31-0.23-1.82-0.33c-0.57-0.11-1.17-0.12-1.68-0.36
		c-0.54-0.25-1.05-0.64-0.89-1.49c0.16-0.88,0.58-1.46,1.38-1.65c2.65-0.65,5.3-1.31,7.96-1.91c3.77-0.84,7.55-0.91,11.36-0.28
		c1.73,0.28,3.49,0.32,5.24,0.41c2.34,0.12,4.67,0.26,7.01,0.26c2.42,0,4.84-0.13,7.26-0.23c2.55-0.1,5.08-0.25,7.64-0.03
		c3.55,0.31,7.12,0.4,10.68,0.5c2.33,0.07,4.67,0,7.01,0c0.31,0,0.63,0,1.25,0c-0.48,1.21-0.84,2.23-1.29,3.2
		c-0.93,1.96-2.14,3.79-2.79,5.85c-0.46,1.47-1.28,2.69-1.79,4.1c-0.29,0.79-0.71,1.55-1.19,2.23c-0.2,0.28-0.77,0.53-1.06,0.43
		c-1.22-0.43-2.39-1.03-3.6-1.49c-0.72-0.27-1.5-0.34-2.23-0.58c-0.85-0.28-1.64-0.76-2.5-0.96c-1.77-0.42-3.56-0.9-5.35-0.99
		c-0.69-0.03-1.41,0.97-2.12,1.48c-2.39,1.73-4.81,3.35-7.65,4.16c-0.87,0.25-1.61,1.05-2.41,1.61c-1.96,1.39-3.84,2.93-5.9,4.11
		c-0.86,0.49-2.13,0.36-3.16,0.18c-0.4-0.07-0.81-1.05-0.93-1.68c-0.42-2.09,0.39-3.75,1.84-5.06c1.03-0.93,2.04-1.92,3.2-2.64
		c0.82-0.51,1.88-0.58,2.81-0.92c0.34-0.12,0.64-0.43,0.91-0.71c0.45-0.44,0.31-0.92-0.12-1.24c-1.16-0.86-2.31-1.78-3.56-2.47
		c-0.65-0.36-1.5-0.36-2.27-0.44c-2.86-0.29-5.45-1.53-8.09-2.61c-0.96-0.39-1.84-1.09-2.82-1.29c-0.9-0.18-1.88,0.15-2.82,0.22
		c-2.03,0.14-4.06,0.25-6.08,0.38c-0.43,0.03-0.87,0.06-1.3,0.09C119.9,8,119.9,8.11,119.91,8.23z"/>
	<path class="st1" d="M107.46,76.81c-0.39-0.07-0.77-0.21-1.16-0.2c-2.65,0.12-5.3,0.28-7.95,0.4c-1.12,0.05-2.06-0.49-2.94-1.12
		c0.01-0.12,0.03-0.25,0.04-0.37c1.22,0,2.45,0.01,3.67-0.01c0.31,0,0.64-0.05,0.94-0.15c1.84-0.59,3.68-1.18,5.51-1.81
		c1.52-0.53,3.01-1.19,4.55-1.64c0.77-0.23,1.65-0.24,2.43-0.09c0.41,0.08,0.93,0.69,1.03,1.15c0.14,0.65,0,1.4-0.76,1.73
		c-1.34,0.59-2.67,1.2-4.01,1.8c-0.17,0.08-0.33,0.17-0.51,0.53c0.71,0.16,1.44,0.48,2.14,0.43c1.12-0.07,1.25,0.7,1.39,1.52
		c0.14,0.85-0.05,1.54-0.94,1.74c-1.1,0.25-2.2,0.46-3.29,0.7c-2.95,0.63-5.87,1.57-8.88,1.57c-2.49,0-4.98-0.43-7.47-0.66
		c-1.15-0.11-2.3-0.16-3.44-0.28c-1.46-0.16-2.92-0.44-4.39-0.53c-2.1-0.14-4.21-0.15-6.32-0.22c-1.55-0.06-3.1-0.17-4.65-0.2
		c-1.62-0.02-3.24,0.08-4.86,0.06c-2.76-0.04-5.52-0.22-8.28-0.2c-3.51,0.02-7.02,0.16-10.53,0.25c-0.1,0-0.19-0.01-0.29-0.02
		c-1.69-0.09-1.69-0.16-0.91-1.75c2.21-4.53,4.38-9.07,6.53-13.64c0.39-0.82,0.74-0.88,1.5-0.54c1.7,0.75,3.45,1.38,5.21,1.98
		c1.15,0.4,2.33,0.7,3.5,1c0.82,0.21,1.66,0.55,2.46,0.48c0.71-0.06,1.46-0.49,2.06-0.96c2.32-1.85,4.91-3.04,7.61-4.07
		c1.42-0.55,2.74-1.48,4.02-2.39c1.88-1.33,3.68-2.76,5.87-3.49c0.99-0.33,2.02-0.47,2.69,0.37c0.73,0.93,0.97,2.19,0.65,3.46
		c-0.44,1.72-1.62,2.84-2.87,3.82c-1.55,1.21-3.19,2.29-5.15,2.65c-0.45,0.08-0.99,0.56-1.15,1.01c-0.09,0.25,0.44,0.86,0.79,1.19
		c0.6,0.57,1.33,0.99,1.91,1.57c0.84,0.83,1.86,0.93,2.9,1.2c2.11,0.54,4.2,1.21,6.24,1.99c1.47,0.56,2.87,1.36,4.29,2.09
		c1.37,0.7,2.72,0.01,4.09,0.02c2.11,0.02,4.23-0.03,6.34-0.05c0.12,0,0.24-0.02,0.36-0.03C107.43,77.01,107.44,76.91,107.46,76.81z
		"/>
	<path class="st1" d="M140.43,50.82c0.68,0.03,1.25,0.06,1.89,0.09c0,0.99,0,1.95,0,3c-2.64,0-5.29,0-8.01,0c0-0.96,0-1.92,0-2.99
		c0.57,0,1.13,0,1.81,0c1.13-6.39,2.25-12.69,3.39-19.11c-0.73,0-1.37,0-2.07,0c0-1.06,0-2.02,0-3.06c3.67,0,7.35,0,11.13,0
		c0,0.96,0,1.95,0,3.02c-0.64,0-1.24,0-2.01,0c0.25,1.5,0.47,2.88,0.72,4.26c0.83,4.69,1.67,9.37,2.48,14.06
		c0.1,0.6,0.31,0.86,0.88,0.79c0.35-0.04,0.7-0.01,1.13-0.01c0,1.06,0,2.04,0,3.08c-2.67,0-5.27,0-7.96,0c0-0.99,0-1.98,0-3.03
		c0.58-0.03,1.14-0.06,1.81-0.1c-0.25-1.88-0.49-3.69-0.74-5.62c-1.14,0-2.23-0.02-3.31,0.02c-0.16,0.01-0.44,0.23-0.46,0.39
		C140.86,47.32,140.65,49.04,140.43,50.82z M144.59,42.02c-0.5-3.75-0.74-7.44-1.39-11.07c-0.15,0.01-0.3,0.02-0.45,0.02
		c-0.43,3.66-0.86,7.32-1.3,11.05C142.49,42.02,143.45,42.02,144.59,42.02z"/>
	<path class="st1" d="M10.02,44.19c0,2.26,0,4.41,0,6.67c0.81,0,1.57,0,2.41,0c0,1.06,0,2.02,0,3.06c-3.04,0-6.08,0-9.19,0
		c0-0.96,0-1.92,0-2.99c0.76,0,1.51,0,2.36,0c0-6.39,0-12.68,0-19.11c-0.75,0-1.53,0-2.37,0c0-1.1,0-2.06,0-3.15
		c1.24,0,2.45-0.05,3.66,0.01c2.34,0.11,4.73,0.03,7.02,0.48c2.66,0.52,4.53,2.39,5.07,5.37c0.55,3.04,0.15,5.88-2.32,7.9
		c-1.67,1.37-3.7,1.51-5.7,1.7C10.68,44.15,10.39,44.16,10.02,44.19z M10.02,41.01c1.56,0.02,3.04,0.05,4.02-1.52
		c0.91-1.47,0.86-4.83-0.07-6.21c-0.72-1.07-2.54-1.68-3.95-1.32C10.02,34.93,10.02,37.91,10.02,41.01z"/>
	<path class="st2" d="M96.21,72.04c1.1-0.2,2.3-0.17,3.3-0.64c2.85-1.35,5.59-2.97,8.44-4.34c0.75-0.36,1.85-0.54,2.56-0.23
		c1.36,0.6,1.24,2.43-0.2,3.38c-1.27,0.84-2.62,1.57-3.99,2.18c-2.1,0.92-4.22,1.82-6.4,2.47c-1.2,0.36-2.54,0.11-3.8,0.28
		c-2.13,0.29-3.92-0.76-5.81-1.51c-1.22-0.49-2.53-0.87-3.82-1c-1.31-0.13-2.42-0.55-3.43-1.42c-0.74-0.63-1.5-1.24-2.26-1.85
		c0.03-0.1,0.07-0.21,0.1-0.31c0.55-0.05,1.1-0.17,1.64-0.13c1.56,0.12,3.13,0.27,4.69,0.48c1.48,0.19,2.95,0.49,4.43,0.68
		c0.38,0.05,0.82-0.1,1.18-0.28c1.63-0.8,3.18-2.08,4.86-2.35c2.2-0.34,3.97-1.98,6.19-2c0.75-0.01,1.58-0.36,2.08,0.71
		c0.3,0.65,0.06,1.05-0.36,1.3c-2.72,1.65-5.47,3.21-8.58,3.87c-0.31,0.06-0.6,0.21-0.9,0.31C96.17,71.78,96.19,71.91,96.21,72.04z"
		/>
	<path class="st1" d="M212.44,51.03c0.6,0.04,1.04,0.06,1.56,0.09c0,0.92,0,1.81,0,2.78c-1.74,0-3.5,0-5.3,0
		c-0.03-0.32-0.07-0.66-0.12-1.14c-1.3,1.28-2.76,2.04-4.42,1.46c-0.9-0.31-1.85-0.89-2.48-1.64c-1.6-1.91-1.5-5.76,0.03-7.68
		c1.6-2,4.23-2.3,6.81-0.74c0-1.42,0.06-2.82-0.02-4.21c-0.05-0.86-0.73-1.17-1.46-1.25c-0.92-0.09-1.75,0.06-2.23,1.06
		c-0.13,0.27-0.21,0.58-0.34,0.96c-1.11-0.26-2.2-0.51-3.36-0.77c0.4-2.01,1.58-3.13,3.21-3.74c1.46-0.55,2.98-0.58,4.48-0.16
		c2.42,0.68,3.62,2.34,3.63,5.06c0.02,2.89,0.01,5.79,0.01,8.68C212.44,50.19,212.44,50.57,212.44,51.03z M208.64,48.69
		c0.03,0,0.06-0.01,0.09-0.01c-0.1-0.78,0.02-1.71-0.35-2.3c-0.86-1.37-3.23-0.93-3.6,0.67c-0.23,1-0.17,2.15,0.03,3.17
		c0.2,1.04,1.3,1.48,2.47,1.24c1.11-0.22,1.35-0.57,1.35-1.94C208.64,49.25,208.64,48.97,208.64,48.69z"/>
	<path class="st2" d="M131.82,12.66c-1.59,0.22-3.15,0.07-4.62,1.04c-2.45,1.63-5.04,3.03-7.65,4.35c-0.74,0.37-1.75,0.25-2.61,0.15
		c-0.66-0.08-0.99-1.79-0.43-2.41c0.61-0.67,1.33-1.27,2.08-1.75c1.35-0.85,2.71-1.7,4.15-2.33c1.88-0.82,3.81-1.6,5.78-2.08
		c1.57-0.38,3.26-0.45,4.87-0.32c1.11,0.09,2.17,0.82,3.28,1.13c1.61,0.46,3.24,0.99,4.89,1.15c2.17,0.22,3.49,1.88,5.2,2.86
		c0,0.1,0,0.2-0.01,0.3c-0.29,0.11-0.59,0.31-0.88,0.31c-3.2-0.07-6.39-0.24-9.56-0.81c-0.46-0.08-1.02,0.07-1.45,0.29
		c-1.1,0.56-2.13,1.3-3.25,1.82c-1.14,0.53-2.36,0.87-3.53,1.34c-1.17,0.48-2.29,1.11-3.48,1.5c-0.74,0.24-1.57,0.24-2.36,0.19
		c-0.51-0.04-0.64-1.24-0.1-1.78c0.57-0.59,1.25-1.09,1.95-1.48c2.23-1.23,4.42-2.57,6.94-3.03
		C131.32,13.06,131.56,12.82,131.82,12.66z"/>
	<path class="st1" d="M32.58,44.57c0.21-1.35,0.35-3.17,0.8-4.89c0.68-2.59,2.4-3.83,4.91-3.88c2.39-0.05,4.22,1.19,5.01,3.63
		c1.2,3.7,1.19,7.48,0.07,11.19c-0.78,2.57-2.63,3.84-5.1,3.8c-2.52-0.05-4.13-1.34-4.94-4.01c-0.16-0.53-0.3-1.07-0.36-1.62
		C32.83,47.54,32.74,46.29,32.58,44.57z M40.22,45.1c-0.03,0-0.07,0-0.1-0.01c0-0.91,0.05-1.81-0.01-2.72
		c-0.05-0.83-0.18-1.66-0.35-2.47c-0.16-0.74-0.61-1.21-1.38-1.2c-0.78,0.01-1.15,0.52-1.35,1.24c-0.07,0.27-0.16,0.54-0.16,0.81
		c-0.06,2.4-0.15,4.8-0.14,7.2c0,0.86,0.14,1.75,0.41,2.55c0.14,0.41,0.72,0.91,1.09,0.91c0.48-0.01,1.03-0.39,1.41-0.78
		c0.24-0.24,0.28-0.77,0.31-1.18C40.05,48.01,40.13,46.55,40.22,45.1z"/>
	<path class="st1" d="M155.6,39.11c-0.69,0-1.26,0-1.9,0c0-0.95,0-1.84,0-2.84c0.61-0.03,1.23-0.06,1.97-0.1
		c0-0.83,0.01-1.62,0-2.42c-0.08-4.52,3.14-5.81,6.1-5.42c1.68,0.22,2.96,1.06,3.7,2.94c-1.03,0.27-2.01,0.55-3,0.76
		c-0.21,0.04-0.46-0.23-0.7-0.31c-0.52-0.18-1.12-0.57-1.56-0.43c-0.35,0.12-0.67,0.89-0.72,1.4c-0.11,1.1-0.03,2.22-0.03,3.48
		c0.87,0,1.72,0,2.63,0c0,1.03,0,1.92,0,2.91c-0.83,0-1.66,0-2.56,0c0,4.02,0,7.94,0,11.95c0.89,0,1.77,0,2.74,0
		c0,1.01,0,1.93,0,2.91c-2.83,0-5.65,0-8.55,0c0-0.92,0-1.83,0-2.84c0.63,0,1.23,0,1.9,0C155.6,47.09,155.6,43.17,155.6,39.11z"/>
	<path class="st1" d="M63.19,48.63c1.11,0.35,2.15,0.67,3.18,0.99c-0.69,2.89-2.88,4.79-5.42,4.8c-2.85,0.01-4.63-1.46-5.35-4.54
		c-0.75-3.2-0.71-6.43,0.07-9.62c0.74-3.03,2.69-4.57,5.43-4.46c2.63,0.11,4.59,1.96,5.17,4.88c0.1,0.51,0.19,1.03,0.21,1.55
		c0.03,1.22,0.01,2.43,0.01,3.77c-2.44,0-4.84,0-7.5,0c0.15,1.44,0.23,2.74,0.45,4.01c0.14,0.83,0.62,1.45,1.52,1.49
		c0.94,0.04,1.52-0.48,1.83-1.38C62.94,49.69,63.03,49.25,63.19,48.63z M62.71,43.5c0.12-1.33,0.13-2.63-0.4-3.86
		c-0.3-0.7-0.87-0.98-1.59-0.93c-0.71,0.05-1.19,0.48-1.31,1.17c-0.2,1.17-0.27,2.37-0.41,3.62C60.36,43.5,61.48,43.5,62.71,43.5z"
		/>
	<path class="st1" d="M194.57,47.82c0.96,0.32,1.92,0.59,2.83,0.99c0.21,0.09,0.37,0.67,0.34,1.01c-0.2,2.06-1.54,3.87-3.47,4.25
		c-1.32,0.26-2.76,0.22-4.09-0.02c-1.73-0.31-2.8-1.66-3.26-3.48c-0.93-3.67-0.98-7.39,0.01-11.04c1.02-3.75,4.44-4.69,7.12-2.08
		c0.04,0.04,0.11,0.04,0.24,0.07c0.04-0.4,0.09-0.79,0.14-1.25c1.11,0,2.19,0,3.33,0c0,2.12,0,4.19,0,6.34c-1.1,0-2.18,0-3.33,0
		c-0.09-0.7-0.14-1.43-0.29-2.12c-0.25-1.13-0.83-1.56-1.87-1.58c-1.02-0.02-1.71,0.6-1.74,1.57c-0.09,3.12-0.1,6.25,0.03,9.36
		c0.05,1.18,0.85,1.67,1.89,1.65c1.07-0.02,1.62-0.51,1.85-1.72C194.42,49.17,194.48,48.55,194.57,47.82z"/>
	<path class="st1" d="M80.95,42.63c-1.15,0-2.2,0-3.29,0c-0.11-0.8-0.18-1.56-0.34-2.3c-0.22-0.98-0.86-1.41-1.78-1.42
		c-0.94-0.01-1.53,0.44-1.76,1.43c-0.09,0.4-0.21,0.82-0.21,1.23c0.01,2.61-0.03,5.23,0.11,7.83c0.07,1.44,0.79,2.07,1.86,2.1
		c1.14,0.04,1.74-0.45,1.98-1.68c0.12-0.61,0.17-1.23,0.27-2c0.98,0.33,1.97,0.59,2.89,1.02c0.21,0.09,0.31,0.78,0.26,1.16
		c-0.4,2.59-2.24,4.2-4.95,4.4c-3.35,0.25-5.42-1.3-6.11-4.82c-0.63-3.2-0.62-6.46,0.12-9.65c0.71-3.06,2.95-4.55,5.51-3.7
		c0.7,0.23,1.31,0.8,2,1.24c0.04-0.35,0.09-0.75,0.14-1.19c1.09,0,2.15,0,3.29,0C80.95,38.36,80.95,40.45,80.95,42.63z"/>
	<path class="st1" d="M91.72,51.41c0.08,0.12,0.11,0.14,0.12,0.17c0.28,2.47,0.15,2.64-2.13,2.81c-0.26,0.02-0.52,0.03-0.77,0.02
		c-2.69-0.01-4.01-1.37-4.04-4.28c-0.04-3.24-0.01-6.49-0.01-9.73c0-0.38,0-0.76,0-1.21c-0.63-0.05-1.19-0.09-1.8-0.13
		c0-0.95,0-1.84,0-2.8c0.58-0.03,1.12-0.06,1.7-0.09c0.04-0.17,0.12-0.34,0.09-0.49c-0.37-1.9,0.43-2.97,2.04-3.57
		c0.56-0.21,1.05-0.62,1.73-1.04c0,1.79,0,3.41,0,5.11c0.88,0,1.65,0,2.49,0c0,1,0,1.92,0,2.92c-0.82,0-1.58,0-2.48,0
		c0,0.63,0,1.17,0,1.72c0,2.69,0,5.37,0.01,8.06c0,2.35,0.43,2.77,2.58,2.58C91.39,51.45,91.55,51.43,91.72,51.41z"/>
	<path class="st1" d="M45.14,60.09c0-1.01,0-1.9,0-2.77c0.08-0.06,0.13-0.12,0.19-0.13c2.07-0.21,2.43-0.6,2.43-2.84
		c0.01-4.74,0-9.48,0-14.22c0-0.28-0.02-0.55-0.04-0.93c-0.48-0.05-0.94-0.09-1.45-0.14c0-0.93,0-1.82,0-2.78c1.73,0,3.42,0,5.28,0
		c0,0.35,0,0.71,0,1.08c0,5.65,0,11.3,0,16.94c0,3.86-1.07,5.16-4.64,5.64C46.35,60.01,45.78,60.03,45.14,60.09z"/>
	<path class="st1" d="M22.15,39.16c-0.61-0.03-1.15-0.05-1.74-0.08c0-0.95,0-1.83,0-2.8c1.84,0,3.65,0,5.57,0c0,1.01,0,2,0,3
		c0.06,0.05,0.12,0.11,0.19,0.16c1.04-2.06,2.36-3.63,4.8-3.36c0,1.03,0,2.09,0,3.14c-0.72,0.13-1.43,0.2-2.1,0.4
		c-1.73,0.51-2.71,1.83-2.79,3.7c-0.12,2.53-0.03,5.08-0.03,7.72c0.68,0,1.31,0,2.03,0c0,1.01,0,1.92,0,2.9c-2.53,0-5.03,0-7.63,0
		c0-0.91,0-1.82,0-2.81c0.56-0.03,1.09-0.06,1.71-0.09C22.15,47.09,22.15,43.18,22.15,39.16z"/>
	<path class="st1" d="M165.67,39.15c-0.56,0-1.1,0-1.73,0c0-0.99,0-1.9,0-2.88c1.83,0,3.65,0,5.56,0c0,1.04,0,2.03,0,3.02
		c0.07,0.06,0.13,0.11,0.2,0.17c0.99-2.15,2.36-3.63,4.78-3.39c0,1.02,0,2.06,0,3.16c-0.61,0.1-1.25,0.17-1.86,0.33
		c-1.67,0.42-2.86,1.52-2.97,3.4c-0.15,2.66-0.04,5.34-0.04,8.12c0.64,0,1.27,0,1.97,0c0,0.99,0,1.88,0,2.85c-2.53,0-5.05,0-7.66,0
		c0-0.89,0-1.78,0-2.78c0.54-0.03,1.11-0.06,1.74-0.1C165.67,47.08,165.67,43.15,165.67,39.15z"/>
	<path class="st1" d="M178.53,51.02c0-3.99,0-7.88,0-11.83c-0.48-0.04-0.92-0.08-1.43-0.13c0-0.91,0-1.8,0-2.78
		c1.68,0,3.37,0,5.19,0c0,4.89,0,9.78,0,14.7c0.43,0.06,0.74,0.1,1.14,0.16c0,0.89,0,1.78,0,2.76c-2.08,0-4.18,0-6.34,0
		c0-0.91,0-1.8,0-2.75C177.57,51.11,178.01,51.07,178.53,51.02z"/>
	<path class="st1" d="M49.51,32.41c-1.31-0.02-2.37-0.94-2.39-2.06c-0.01-1.17,1.09-2.12,2.44-2.1c1.3,0.01,2.38,0.94,2.39,2.06
		C51.96,31.46,50.84,32.43,49.51,32.41z"/>
	<path class="st1" d="M180.36,32.41c-1.32,0.02-2.48-0.97-2.47-2.1c0.01-1.1,1.1-2.05,2.4-2.07c1.35-0.02,2.44,0.92,2.43,2.09
		C182.71,31.48,181.67,32.4,180.36,32.41z"/>
</g>
</svg>
